<svg xmlns="http://www.w3.org/2000/svg" width="1200" height="630" viewBox="0 0 1200 630">
<defs>
<linearGradient id="bg" x1="0" y1="0" x2="0" y2="1"><stop offset="0" stop-color="#120c0e"/><stop offset="0.55" stop-color="#0d090b"/><stop offset="1" stop-color="#0a0709"/></linearGradient>
<radialGradient id="glow" cx="0.5" cy="0.26" r="0.55"><stop offset="0" stop-color="#ff5a2a" stop-opacity="0.16"/><stop offset="0.5" stop-color="#c23a18" stop-opacity="0.05"/><stop offset="1" stop-color="#000000" stop-opacity="0"/></radialGradient>
<linearGradient id="title" x1="0" y1="0" x2="1" y2="0"><stop offset="0" stop-color="#ff8348"/><stop offset="0.5" stop-color="#f4561f"/><stop offset="1" stop-color="#cf3415"/></linearGradient>
<linearGradient id="divider" x1="0" y1="0" x2="1" y2="0"><stop offset="0" stop-color="#2a2022" stop-opacity="0"/><stop offset="0.5" stop-color="#3a2c2e" stop-opacity="0.9"/><stop offset="1" stop-color="#2a2022" stop-opacity="0"/></linearGradient>
<pattern id="scan" width="3" height="3" patternUnits="userSpaceOnUse"><rect width="1" height="3" fill="#ffffff" fill-opacity="0.016"/></pattern>
</defs>
<rect width="1200" height="630" fill="url(#bg)"/>
<rect width="1200" height="630" fill="url(#scan)"/>
<rect width="1200" height="630" fill="url(#glow)"/>
<text x="600.0" y="208" text-anchor="middle" font-family="Liberation Sans, DejaVu Sans, Arial, sans-serif" font-weight="bold" font-size="92" fill="url(#title)" letter-spacing="-1">embraOS-QNM</text>
<text x="600.0" y="262" text-anchor="middle" font-family="Liberation Sans, DejaVu Sans, Arial, sans-serif" font-style="italic" font-size="21" fill="#8f8a90">Architecture-layer constraints for language models.</text>
<text x="600.0" y="298" text-anchor="middle" font-family="Liberation Sans, DejaVu Sans, Arial, sans-serif" font-size="18" fill="#6b6670" letter-spacing="0.3">An application-specific AI model</text>
<rect x="452.0" y="320" width="296" height="30" rx="15.0" fill="#1c1108" stroke="#7d4f24" stroke-width="1.2"/>
<text x="600.0" y="339.5" text-anchor="middle" font-family="Liberation Sans, DejaVu Sans, Arial, sans-serif" font-weight="bold" font-size="13" fill="#d98a3a" letter-spacing="1.6">PHASE — PRE-IMPLEMENTATION</text>
<rect x="192" y="396" width="240" height="88" rx="13" fill="#e8a13a" fill-opacity="0.06" stroke="#e8a13a" stroke-opacity="0.42" stroke-width="1.2"/>
<g transform="translate(300.0,410)" fill="none" stroke="#e8a13a" stroke-width="1.8" stroke-linecap="round" stroke-linejoin="round"><rect x="1" y="2" width="22" height="5" rx="2" fill="#e8a13a" fill-opacity="0.85" stroke="none"/><rect x="1" y="9.5" width="22" height="5" rx="2" fill="#e8a13a" fill-opacity="0.55" stroke="none"/><rect x="1" y="17" width="22" height="5" rx="2" fill="#e8a13a" fill-opacity="0.3" stroke="none"/></g>
<text x="312.0" y="452" text-anchor="middle" font-family="Liberation Sans, DejaVu Sans, Arial, sans-serif" font-weight="bold" font-size="16" fill="#e8a13a" letter-spacing="1.2">LLM CORE</text>
<text x="312.0" y="470" text-anchor="middle" font-family="Liberation Sans, DejaVu Sans, Arial, sans-serif" font-size="12.5" fill="#857f86">Language foundation</text>
<rect x="480" y="396" width="240" height="88" rx="13" fill="#b08bef" fill-opacity="0.06" stroke="#b08bef" stroke-opacity="0.42" stroke-width="1.2"/>
<g transform="translate(588.0,410)" fill="none" stroke="#b08bef" stroke-width="1.8" stroke-linecap="round" stroke-linejoin="round"><line x1="3" y1="4" x2="21" y2="3" stroke-opacity="0.8"/><line x1="3" y1="4" x2="4" y2="21" stroke-opacity="0.8"/><line x1="21" y1="3" x2="20" y2="20" stroke-opacity="0.8"/><line x1="4" y1="21" x2="20" y2="20" stroke-opacity="0.8"/><line x1="3" y1="4" x2="20" y2="20" stroke-opacity="0.8"/><circle cx="3" cy="4" r="3" fill="#b08bef" stroke="none"/><circle cx="21" cy="3" r="3" fill="#b08bef" stroke="none"/><circle cx="4" cy="21" r="3" fill="#b08bef" stroke="none"/><circle cx="20" cy="20" r="3" fill="#b08bef" stroke="none"/></g>
<text x="600.0" y="452" text-anchor="middle" font-family="Liberation Sans, DejaVu Sans, Arial, sans-serif" font-weight="bold" font-size="16" fill="#b08bef" letter-spacing="1.2">GNN FABRIC</text>
<text x="600.0" y="470" text-anchor="middle" font-family="Liberation Sans, DejaVu Sans, Arial, sans-serif" font-size="12.5" fill="#857f86">Relational reasoning</text>
<rect x="768" y="396" width="240" height="88" rx="13" fill="#3ec9a7" fill-opacity="0.06" stroke="#3ec9a7" stroke-opacity="0.42" stroke-width="1.2"/>
<g transform="translate(876.0,410)" fill="none" stroke="#3ec9a7" stroke-width="1.8" stroke-linecap="round" stroke-linejoin="round"><circle cx="12" cy="12" r="11"/><ellipse cx="12" cy="12" rx="5" ry="11"/><line x1="1" y1="12" x2="23" y2="12"/><path d="M3 7 Q12 10 21 7" stroke-opacity="0.7"/><path d="M3 17 Q12 14 21 17" stroke-opacity="0.7"/></g>
<text x="888.0" y="452" text-anchor="middle" font-family="Liberation Sans, DejaVu Sans, Arial, sans-serif" font-weight="bold" font-size="16" fill="#3ec9a7" letter-spacing="1.2">WORLD-STATE</text>
<text x="888.0" y="470" text-anchor="middle" font-family="Liberation Sans, DejaVu Sans, Arial, sans-serif" font-size="12.5" fill="#857f86">Identity constraints</text>
<text x="456.0" y="445.0" text-anchor="middle" font-family="Liberation Sans, DejaVu Sans, Arial, sans-serif" font-size="18" fill="#4a4248">→</text>
<text x="744.0" y="445.0" text-anchor="middle" font-family="Liberation Sans, DejaVu Sans, Arial, sans-serif" font-size="18" fill="#4a4248">→</text>
<rect x="40" y="589" width="1120" height="1.4" fill="url(#divider)"/>
<text x="40" y="612" font-family="Liberation Sans, DejaVu Sans, Arial, sans-serif" font-size="13" fill="#5b5256">Ward Software Defined Systems LLC · wsds.io</text>
<text x="1160" y="612" text-anchor="end" font-family="Liberation Sans, DejaVu Sans, Arial, sans-serif" font-size="13" fill="#5b5256">Transformer · GNN · Hybrid Architecture</text>
</svg>